<svg xmlns="http://www.w3.org/2000/svg" version="1.1" xmlns:xlink="http://www.w3.org/1999/xlink" xmlns:svgjs="http://svgjs.dev/svgjs" width="1500" height="1500" viewBox="0 0 1500 1500"><rect width="1500" height="1500" fill="#d1abff"></rect><g transform="matrix(0.6666666666666666,0,0,0.6666666666666666,249.39393939393938,438.58569500674764)"><svg viewBox="0 0 396 247" data-background-color="#d1abff" preserveAspectRatio="xMidYMid meet" height="935" width="1500" xmlns="http://www.w3.org/2000/svg" xmlns:xlink="http://www.w3.org/1999/xlink"><g id="tight-bounds" transform="matrix(1,0,0,1,0.2400000000000091,-0.09999999999999432)"><svg viewBox="0 0 395.52 247.2" height="247.2" width="395.52"><g><svg></svg></g><g><svg viewBox="0 0 395.52 247.2" height="247.2" width="395.52"><g transform="matrix(1,0,0,1,131.44445388890398,47.215199999999996)"><svg viewBox="0 0 132.63109222219202 152.7696" height="152.7696" width="132.63109222219202"><g><svg viewBox="0 0 132.63109222219202 152.7696" height="152.7696" width="132.63109222219202"><g><svg viewBox="0 0 209.62706402631474 241.45652564501825" height="152.7696" width="132.63109222219202"><g><svg viewBox="0 0 209.62706402631474 241.45652564501825" height="241.45652564501825" width="209.62706402631474"><g id="textblocktransform"><svg viewBox="0 0 209.62706402631474 241.45652564501825" height="241.45652564501825" width="209.62706402631474" id="textblock"><g><svg viewBox="0 0 209.62706402631474 151.825483872" height="151.825483872" width="209.62706402631474"><g transform="matrix(1,0,0,1,0,0)"><svg width="209.62706402631474" viewBox="0.45 -29.55 40.8 29.55" height="151.825483872" data-palette-color="#712689"><path d="M20.5 0L0.45 0 0.45-29.55 11.8-29.55Q15.35-29.55 16.95-27.88 18.55-26.2 18.55-23.6L18.55-23.6 18.55-19.5Q18.55-17.9 18.13-16.45 17.7-15 16.5-14L16.5-14Q16.9-13.55 17.13-13 17.35-12.45 17.7-11.45L17.7-11.45 20.5 0ZM1.3-28.65L1.3-0.9 9.35-0.9 9.35-8.6 10.85-0.9 19.4-0.9 16.95-10.9Q16.45-12.35 16-13.03 15.55-13.7 15-14.05L15-14.05Q16.45-14.9 17.05-16.4 17.65-17.9 17.65-19.5L17.65-19.5 17.65-23.6Q17.65-25.8 16.28-27.23 14.9-28.65 11.8-28.65L11.8-28.65 1.3-28.65ZM8.95-1.35L1.75-1.35 1.75-28.2 11.8-28.2Q14.65-28.2 15.95-26.93 17.25-25.65 17.25-23.6L17.25-23.6 17.25-19.5Q17.25-17.5 16.5-16.05 15.75-14.6 13.65-14L13.65-14Q14.65-13.9 15.3-13.3 15.95-12.7 16.45-11.1L16.45-11.1 18.85-1.35 11.25-1.35 8.95-12.7 8.95-1.35ZM8.9-24.4L8.9-15.9 9.35-15.9Q9.9-15.9 10.1-16.65 10.3-17.4 10.3-19.25L10.3-19.25 10.3-21.75Q10.3-23.5 10.1-23.95 9.9-24.4 9.35-24.4L9.35-24.4 8.9-24.4ZM9.5-16.35L9.3-16.35 9.3-23.9 9.5-23.9Q9.75-23.9 9.83-23.43 9.9-22.95 9.9-21.2L9.9-21.2 9.9-19.25Q9.9-17.45 9.75-16.9 9.6-16.35 9.5-16.35L9.5-16.35ZM41.25 0L20.65 0 24.75-29.55 37.25-29.55 41.25 0ZM25.5-28.65L21.65-0.9 30.1-0.9 30.4-4.8 31.15-4.8 31.55-0.9 40.25-0.9 36.5-28.65 25.5-28.65ZM29.7-1.35L22.15-1.35 25.85-28.2 36.1-28.2 39.7-1.35 31.9-1.35 31.55-5.25 29.95-5.25 29.7-1.35ZM30.8-22.5L30-8.75 31.55-8.75 30.8-22.5ZM31.15-9.2L30.45-9.2 30.8-14.55 31.15-9.2Z" opacity="1" transform="matrix(1,0,0,1,0,0)" fill="#712689" class="wordmark-text-0" data-fill-palette-color="primary" id="text-0"></path></svg></g></svg></g><g transform="matrix(1,0,0,1,0,187.66783680256628)"><svg viewBox="0 0 209.62706402631474 53.78868884245197" height="53.78868884245197" width="209.62706402631474"><g transform="matrix(1,0,0,1,0,0)"><svg width="209.62706402631474" viewBox="3.3 -38.4 197.17999999999998 50.599999999999994" height="53.78868884245197" data-palette-color="#712689"><path d="M13.8 0L13.8-30.4 3.3-30.4 3.3-34.8 28.7-34.8 28.7-30.4 18.2-30.4 18.2 0 13.8 0ZM50.95-26.7Q54.65-26.7 56.55-24.43 58.45-22.15 58.45-18.1L58.45-18.1 58.45 0 54.05 0 54.05-17.5Q54.05-20 53-21.38 51.95-22.75 49.8-22.75L49.8-22.75Q47.35-22.75 45.67-21.95 44-21.15 41.95-19.35L41.95-19.35 41.95 0 37.55 0 37.55-37.7 41.95-37.7 41.95-22.85Q44.15-24.85 46.12-25.78 48.1-26.7 50.95-26.7L50.95-26.7ZM80.55-26.7L82.09-26.7 82.09-21.85 81.34-21.85Q79-21.85 77.12-21 75.25-20.15 74-18.55L74-18.55 74 0 69.59 0 69.59-20.3 68.5-26.1 72.9-26.1 73.8-21.45Q75.84-24.45 77.27-25.58 78.7-26.7 80.55-26.7L80.55-26.7ZM91.99-32Q90.59-32 89.72-32.9 88.84-33.8 88.84-35.2L88.84-35.2Q88.84-36.6 89.72-37.5 90.59-38.4 91.99-38.4L91.99-38.4Q93.39-38.4 94.27-37.5 95.14-36.6 95.14-35.2L95.14-35.2Q95.14-33.8 94.27-32.9 93.39-32 91.99-32L91.99-32ZM89.79-26.1L94.19-26.1 94.19 0 89.79 0 89.79-26.1ZM121.34-26.1L125.64-26.1 115.99 0 109.99 0 100.34-26.1 104.84-26.1 113.09-3.55 121.34-26.1ZM133.99-32Q132.59-32 131.71-32.9 130.84-33.8 130.84-35.2L130.84-35.2Q130.84-36.6 131.71-37.5 132.59-38.4 133.99-38.4L133.99-38.4Q135.39-38.4 136.26-37.5 137.14-36.6 137.14-35.2L137.14-35.2Q137.14-33.8 136.26-32.9 135.39-32 133.99-32L133.99-32ZM131.79-26.1L136.19-26.1 136.19 0 131.79 0 131.79-26.1ZM159.94-26.7Q163.64-26.7 165.54-24.43 167.44-22.15 167.44-18.1L167.44-18.1 167.44 0 163.04 0 163.04-17.5Q163.04-20 161.99-21.38 160.94-22.75 158.79-22.75L158.79-22.75Q156.34-22.75 154.66-21.95 152.99-21.15 150.94-19.35L150.94-19.35 150.94 0 146.54 0 146.54-20.3 145.44-26.1 149.84-26.1 150.54-22.45Q152.89-24.7 154.91-25.7 156.94-26.7 159.94-26.7L159.94-26.7ZM196.08-26.15L200.48-26.15 199.38-20.35 199.38-1.7Q199.38 4.9 196.33 8.55 193.28 12.2 187.28 12.2L187.28 12.2Q183.93 12.2 181.78 11.55 179.63 10.9 177.33 8.95L177.33 8.95 177.33 4.5Q179.78 6.55 181.93 7.33 184.08 8.1 187.28 8.1L187.28 8.1Q191.13 8.1 193.06 5.68 194.98 3.25 194.98-1.1L194.98-1.1 194.98-2.4Q193.33-1.3 191.66-0.83 189.98-0.35 187.68-0.35L187.68-0.35Q182.03-0.35 179.16-3.75 176.28-7.15 176.28-13.3L176.28-13.3Q176.28-19.65 179.28-23.18 182.28-26.7 188.18-26.7L188.18-26.7Q190.33-26.7 191.91-26.28 193.48-25.85 195.73-24.85L195.73-24.85 196.08-26.15ZM187.73-4.4Q189.93-4.4 191.58-4.95 193.23-5.5 194.98-6.7L194.98-6.7 194.98-21.8Q193.38-22.35 191.96-22.58 190.53-22.8 188.68-22.8L188.68-22.8Q184.78-22.8 182.91-20.3 181.03-17.8 181.03-13.35L181.03-13.35Q181.03-4.4 187.73-4.4L187.73-4.4Z" opacity="1" transform="matrix(1,0,0,1,0,0)" fill="#712689" class="slogan-text-1" data-fill-palette-color="secondary" id="text-1"></path></svg></g></svg></g></svg></g></svg></g></svg></g></svg></g></svg></g><g><path d="M0 123.6c0-68.262 55.338-123.6 123.6-123.6 33.966 0 64.731 13.7 87.072 35.876l-6.265 0c-21.249-19.584-49.631-31.545-80.807-31.545-65.87 0-119.269 53.398-119.269 119.269 0 65.87 53.398 119.269 119.269 119.269 31.176 0 59.557-11.961 80.807-31.545h6.265c-22.341 22.176-53.107 35.876-87.072 35.876-68.262 0-123.6-55.338-123.6-123.6z" fill="#712689" stroke="transparent" data-fill-palette-color="tertiary"></path></g></svg></g><defs></defs></svg><rect width="395.52" height="247.2" fill="none" stroke="none" visibility="hidden"></rect></g></svg></g></svg>